<svg xmlns="http://www.w3.org/2000/svg" width="17.533" height="16.783" viewBox="1640.983 60.983 17.533 16.783"><path d="M1658.106 68.592c.344-.335.465-.827.317-1.285a1.246 1.246 0 0 0-1.013-.854l-4.233-.615a.553.553 0 0 1-.417-.303l-1.893-3.836a1.246 1.246 0 0 0-1.124-.699c-.48 0-.912.268-1.124.7l-1.894 3.836a.554.554 0 0 1-.417.302l-4.233.616a1.246 1.246 0 0 0-1.013.853c-.148.458-.027.95.317 1.286l3.064 2.985c.13.128.19.311.16.49l-.723 4.217c-.064.37.033.732.273 1.017a1.267 1.267 0 0 0 1.546.304l3.786-1.99a.567.567 0 0 1 .515 0l3.787 1.99c.184.097.38.146.583.146a1.257 1.257 0 0 0 1.236-1.467l-.723-4.216a.554.554 0 0 1 .16-.49l3.063-2.987Z" fill="#262626" fill-rule="evenodd" data-name="001-star"/></svg>