<svg xmlns="http://www.w3.org/2000/svg" width="67.2" height="64.783" viewBox="515 3010.967 67.2 64.783"><g data-name="box"><g data-name="Group 868"><g data-name="Group 867"><path d="M576.741 3058.298a1.338 1.338 0 0 0-1.718-.792l-13.918 5.135a1.338 1.338 0 0 0 .927 2.511l13.917-5.135a1.338 1.338 0 0 0 .792-1.719Z" fill="#bcad94" fill-rule="evenodd" data-name="Path 469"/></g></g><g data-name="Group 870"><g data-name="Group 869"><path d="M558.998 3064.846a1.338 1.338 0 0 0-1.719-.793l-.59.218a1.338 1.338 0 0 0 .927 2.51l.59-.217a1.338 1.338 0 0 0 .792-1.718Z" fill="#bcad94" fill-rule="evenodd" data-name="Path 470"/></g></g><g data-name="Group 872"><g data-name="Group 871"><path d="M576.741 3052.845a1.339 1.339 0 0 0-1.718-.792l-10.999 4.058a1.338 1.338 0 1 0 .927 2.511l10.998-4.058a1.338 1.338 0 0 0 .792-1.719Z" fill="#bcad94" fill-rule="evenodd" data-name="Path 471"/></g></g><g data-name="Group 874"><g data-name="Group 873"><path d="M576.741 3047.449a1.339 1.339 0 0 0-1.718-.792l-10.999 4.058a1.338 1.338 0 1 0 .927 2.51l10.998-4.057a1.338 1.338 0 0 0 .792-1.719Z" fill="#bcad94" fill-rule="evenodd" data-name="Path 472"/></g></g><g data-name="Group 876"><g data-name="Group 875"><path d="m581.302 3022.964-32.25-11.9a1.34 1.34 0 0 0-.927 0l-32.25 11.9a1.338 1.338 0 0 0-.875 1.254v38.287c0 .56.35 1.062.875 1.256l32.25 11.9a1.337 1.337 0 0 0 .926-.001l32.25-11.899c.527-.194.876-.695.876-1.256v-38.286c0-.56-.35-1.061-.875-1.255Zm-34.052 49.521-29.574-10.912v-35.434l6.022 2.222v16.214c0 .56.35 1.062.875 1.256l14.452 5.333a1.337 1.337 0 0 0 1.802-1.256v-15.226l6.423 2.37v35.433Zm-9.1-38.791v14.294l-11.775-4.345v-14.294l11.776 4.345Zm-9.248-6.276 10.587-3.906 10.586 3.906-10.586 3.906-10.587-3.906Zm19.686 7.275-5.248-1.937 11.064-4.083a1.338 1.338 0 0 0 0-2.51l-14.452-5.333a1.34 1.34 0 0 0-.927 0l-14.003 5.167-4.818-1.778 28.384-10.473 28.385 10.473-28.385 10.474Zm30.912 26.88-29.573 10.912v-35.433l29.573-10.913v35.434Z" fill="#bcad94" fill-rule="evenodd" data-name="Path 473"/></g></g></g></svg>