<svg xmlns="http://www.w3.org/2000/svg" width="91.433" height="102.1" viewBox="1397.3 1515.633 91.433 102.1"><g data-name="Group 214"><g data-name="Subtraction 28"><path d="M1441.838 1605.884a35.564 35.564 0 0 1-25.119-10.338 35.575 35.575 0 0 1-10.563-25h71.365a35.575 35.575 0 0 1-10.564 25 35.565 35.565 0 0 1-25.119 10.338Z" fill="#fff" fill-rule="evenodd"/><path d="M35.682 35.338c-4.789 0-9.437-.933-13.815-2.773A35.564 35.564 0 0 1 10.564 25 35.575 35.575 0 0 1 0 0h71.365A35.575 35.575 0 0 1 60.8 25a35.565 35.565 0 0 1-25.119 10.338Z" stroke-linejoin="round" stroke-linecap="round" stroke-width="2" stroke="#bcad94" fill="transparent" transform="matrix(.97198 0 0 .9434 1407.156 1571.546)"/></g><path d="M1440.376 1578.295h-25.233" stroke-linejoin="round" stroke-linecap="round" stroke-width="2" stroke="#bcad94" fill="transparent" data-name="Line 58"/><path d="M1463.625 1548.532v-5.221" stroke-linejoin="round" stroke-linecap="round" stroke-width="2" stroke="#bcad94" fill="transparent" data-name="Line 57"/><g data-name="Subtraction 19"><path d="M1445.565 1617.5h-6.36c-1.654 0-3-1.346-3-3v-10.809a59.05 59.05 0 0 0 12.36 0v10.808c0 1.655-1.345 3-3 3Z" fill="#fff" fill-rule="evenodd"/><path d="M9.36 13.809H3c-1.654 0-3-1.346-3-3V0a59.05 59.05 0 0 0 12.36 0v10.808c0 1.655-1.345 3-3 3Z" stroke-linejoin="round" stroke-linecap="round" stroke-width="2" stroke="#bcad94" fill="transparent" transform="matrix(.8382 0 0 .85516 1437.205 1604.691)"/></g><g data-name="Rectangle 49"><path d="M1417.856 1548.586h4.113a3 3 0 0 1 3 3v10.484h-10.113v-10.484a3 3 0 0 1 3-3z" fill="#fff" fill-rule="evenodd"/><path d="M3 0h4.113a3 3 0 0 1 3 3v10.484h0H0h0V3a3 3 0 0 1 3-3z" stroke-linejoin="round" stroke-linecap="round" stroke-width="2" stroke="#bcad94" fill="transparent" transform="matrix(.80223 0 0 .85167 1415.856 1549.586)"/></g><g data-name="Subtraction 27"><path d="M1446.318 1562.07h-10.113v-30.434c0-.164.013-.328.04-.487a16.153 16.153 0 0 1 4.731-10.376 16.185 16.185 0 0 1 11.522-4.773c4.352 0 8.443 1.695 11.52 4.773a16.133 16.133 0 0 1 4.572 8.948c.133.498.2 1.018.2 1.544v6.444c0 1.654-1.345 3-3 3h-4.113c-1.654 0-3-1.346-3-3v-4.854h-.025a6.186 6.186 0 0 0-6.154-6.742 6.187 6.187 0 0 0-6.155 6.742l-.025.001v29.213Z" fill="#fff" fill-rule="evenodd"/><path d="M10.113 46.07h0H0V15.635c0-.164.013-.328.04-.487A16.153 16.153 0 0 1 4.772 4.773 16.185 16.185 0 0 1 16.294 0c4.352 0 8.443 1.695 11.52 4.773a16.133 16.133 0 0 1 4.572 8.948c.133.498.2 1.018.2 1.544v6.444c0 1.654-1.346 3-3 3h-4.113c-1.654 0-3-1.346-3-3v-4.854h-.025a6.186 6.186 0 0 0-6.154-6.742 6.187 6.187 0 0 0-6.155 6.742l-.026.001V46.07Z" stroke-linejoin="round" stroke-linecap="round" stroke-width="2" stroke="#bcad94" fill="transparent" transform="matrix(.93862 0 0 .95659 1437.205 1517)"/></g><g data-name="Rectangle 35"><path d="M1485.343 1573.84h-84.645a3 3 0 0 1-3-3v-8.251a3 3 0 0 1 3-3h84.645a3 3 0 0 1 3 3v8.251a3 3 0 0 1-3 3z" fill="#fff" fill-rule="evenodd"/><path d="M3 0h84.645a3 3 0 0 1 3 3v8.251a3 3 0 0 1-3 3H3a3 3 0 0 1-3-3V3a3 3 0 0 1 3-3z" stroke-linejoin="round" stroke-linecap="round" stroke-width="2" stroke="#bcad94" fill="transparent" transform="matrix(-.97794 0 0 -.85966 1487.343 1572.84)"/></g></g></svg>