<svg xmlns="http://www.w3.org/2000/svg" width="79.35" height="66.417" viewBox="1051.667 3009.617 79.35 66.417"><g data-name="Group 877"><path d="M1125.713 3009.648h-60.8a5.287 5.287 0 0 0-5.286 5.287v42.295h-6.609c-.73 0-1.321.592-1.321 1.322a5.287 5.287 0 0 0 5.286 5.287h38.33v10.86a1.322 1.322 0 0 0 2.257.935l6.996-6.996 6.996 6.996a1.322 1.322 0 0 0 2.256-.934v-10.861h3.965a5.287 5.287 0 0 0 5.287-5.287v-42.295h6.609c.73 0 1.321-.592 1.321-1.322a5.287 5.287 0 0 0-5.287-5.287Zm-5.286 5.287v42.295h-5.287v2.644h4.931a2.644 2.644 0 0 1-2.288 1.322h-3.965v-6.322h-2.644v16.635l-5.674-5.674a1.322 1.322 0 0 0-1.869 0l-5.674 5.674v-16.635h-2.643v6.322h-38.33a2.644 2.644 0 0 1-2.288-1.322h39.296v-2.644h-31.722v-42.295a2.643 2.643 0 0 1 2.644-2.643h56.247c-.475.8-.729 1.712-.734 2.643Zm2.999-1.322a2.643 2.643 0 0 1 4.575 0h-4.575Z" fill="#bcad94" fill-rule="evenodd" data-name="Path 466"/><g data-name="Group 856"><g data-name="Group 855"><path d="m1117.026 3053.012-1.693-3.034 1.7-3.03a1.322 1.322 0 0 0-.602-1.85l-3.155-1.445-.407-3.45a1.322 1.322 0 0 0-1.569-1.14l-3.407.675-2.357-2.553a1.361 1.361 0 0 0-1.925-.015l-.015.015-2.357 2.553-3.407-.676a1.322 1.322 0 0 0-1.57 1.14l-.406 3.45-3.155 1.448a1.322 1.322 0 0 0-.602 1.85l1.7 3.028-1.7 3.031a1.322 1.322 0 0 0 .602 1.85l3.155 1.448.407 3.452a1.322 1.322 0 0 0 1.569 1.14l3.407-.675 2.357 2.553a1.322 1.322 0 0 0 1.94 0l2.357-2.553 3.407.676c.361.074.737-.009 1.034-.228.295-.217.486-.548.528-.913l.407-3.45 3.155-1.447a1.322 1.322 0 0 0 .602-1.85Zm-4.36-2.389 1.36 2.427-2.528 1.16a1.322 1.322 0 0 0-.761 1.046l-.325 2.766-2.732-.54a1.303 1.303 0 0 0-1.227.396l-1.887 2.046-1.888-2.043a1.321 1.321 0 0 0-1.226-.398l-2.732.54-.325-2.766a1.322 1.322 0 0 0-.762-1.046l-2.527-1.16 1.36-2.426a1.297 1.297 0 0 0 0-1.293v.005l-1.36-2.426 2.527-1.16c.42-.192.708-.589.762-1.046l.325-2.767 2.732.54c.45.093.915-.057 1.226-.396l1.888-2.05 1.887 2.044c.31.34.777.49 1.227.396l2.732-.54.325 2.766c.054.458.342.855.761 1.047l2.527 1.159-1.36 2.427a1.322 1.322 0 0 0 0 1.292Z" fill="#bcad94" fill-rule="evenodd" data-name="Path 467"/></g></g><g data-name="Group 858"><g data-name="Group 857"><path d="M1104.566 3043.37a6.609 6.609 0 0 0-6.609 6.608 6.617 6.617 0 0 0 6.609 6.609 6.609 6.609 0 0 0 0-13.217Zm0 10.573a3.965 3.965 0 1 1 0-7.93 3.965 3.965 0 0 1 0 7.93Z" fill="#bcad94" fill-rule="evenodd" data-name="Path 468"/></g></g><g data-name="Group 860"><g data-name="Group 859"><path d="M1077.775 3019.579h27.24v2.643h-27.24v-2.643z" fill="#bcad94" fill-rule="evenodd" data-name="Rectangle 593"/></g></g><g data-name="Group 862"><g data-name="Group 861"><path d="M1067.557 3028.509h39.824v2.643h-39.824v-2.643z" fill="#bcad94" fill-rule="evenodd" data-name="Rectangle 594"/></g></g><g data-name="Group 864"><g data-name="Group 863"><path d="M1067.557 3033.796h28.325v2.644h-28.325v-2.644z" fill="#bcad94" fill-rule="evenodd" data-name="Rectangle 595"/></g></g><g data-name="Group 866"><g data-name="Group 865"><path d="M1068.879 3047.978h17.183v2.644h-17.183v-2.644z" fill="#bcad94" fill-rule="evenodd" data-name="Rectangle 596"/></g></g></g></svg>