<svg xmlns="http://www.w3.org/2000/svg" width="18.567" height="16.783" viewBox="1593.967 60.983 18.567 16.783"><g data-name="Group 839"><path d="M1596.243 67.172a2.244 2.244 0 0 1 2.244 2.244v6.093a2.244 2.244 0 0 1-2.244 2.243A2.244 2.244 0 0 1 1594 75.51v-6.093a2.244 2.244 0 0 1 2.243-2.244z" fill="#262626" fill-rule="evenodd" data-name="Rectangle 408"/><path d="M1603.257 61a2.244 2.244 0 0 1 2.243 2.244v12.264a2.244 2.244 0 0 1-2.243 2.244 2.244 2.244 0 0 1-2.244-2.244V63.244a2.244 2.244 0 0 1 2.244-2.244z" fill="#262626" fill-rule="evenodd" data-name="Rectangle 409"/><path d="M1610.269 64.747a2.244 2.244 0 0 1 2.243 2.244v8.517a2.244 2.244 0 0 1-2.243 2.244 2.244 2.244 0 0 1-2.244-2.244v-8.517a2.244 2.244 0 0 1 2.244-2.244z" fill="#262626" fill-rule="evenodd" data-name="Rectangle 410"/></g></svg>