<svg xmlns="http://www.w3.org/2000/svg" width="46.733" height="103.95" viewBox="936.633 1448.967 46.733 103.95"><g data-name="Group 1"><g data-name="Union 18"><path d="M940.896 1488.362c-.007-.12-.01-.24-.01-.362v-29c0-3.314 2.685-6 5.999-6h26.23c3.314 0 6 2.686 6 6v29c0 .122-.004.242-.011.362C978.763 1502.045 970.34 1513 960 1513s-18.763-10.954-19.104-24.638Z" fill="#fff" fill-rule="evenodd"/><path d="M-2659.989 1293.362c-.007-.12-.01-.24-.01-.362v-29c0-3.314 2.685-6 5.999-6h26.23c3.314 0 6 2.686 6 6v29c0 .122-.004.242-.011.362-.341 13.683-8.764 24.638-19.104 24.638s-18.763-10.954-19.104-24.638Z" stroke-linejoin="round" stroke-linecap="round" stroke-width="2" stroke="#bcad94" fill="transparent" transform="matrix(.94768 0 0 .96667 3462.725 237.934)"/></g><g data-name="Path 1"><path d="M947 1508h26a6 6 0 0 1 6 6l4 29a6 6 0 0 1-6 6h-34a6 6 0 0 1-6-6l4-29a6 6 0 0 1 6-6Z" fill="#fff" fill-rule="evenodd"/><path d="M10 0h26a6 6 0 0 1 6 6l4 29a6 6 0 0 1-6 6H6a6 6 0 0 1-6-6L4 6a6 6 0 0 1 6-6Z" stroke-linejoin="round" stroke-linecap="round" stroke-width="2" stroke="#bcad94" fill="transparent" transform="matrix(.95652 0 0 .95122 938 1509)"/></g><path d="M945.5 1551.5h7" stroke-linejoin="round" stroke-linecap="round" stroke-width="2" stroke="#bcad94" fill="transparent" data-name="Line 29"/><path d="M967.5 1551.5h7" stroke-linejoin="round" stroke-linecap="round" stroke-width="2" stroke="#bcad94" fill="transparent" data-name="Line 30"/><g data-name="Ellipse 75"><path d="M950 1528.4a10.5 10.5 0 1 1 0 .1z" fill="#fff" fill-rule="evenodd"/><path d="M951 1528.405a9.5 9.5 0 1 1 0 .09z" stroke-linejoin="round" stroke-linecap="round" stroke-width="1.80952" stroke="#bcad94" fill="transparent"/></g><g data-name="Rectangle 37"><path d="M953 1449h14a3 3 0 0 1 3 3v3h-20v-3a3 3 0 0 1 3-3z" fill="#fff" fill-rule="evenodd"/><path d="M3 0h14a3 3 0 0 1 3 3v3h0H0h0V3a3 3 0 0 1 3-3z" stroke-linejoin="round" stroke-linecap="round" stroke-width="2" stroke="#bcad94" fill="transparent" transform="matrix(.9 0 0 .66667 951 1450)"/></g><g data-name="Rectangle 38"><path d="M946 1453h28a5 5 0 0 1 5 5v5h-38v-5a5 5 0 0 1 5-5z" fill="#fff" fill-rule="evenodd"/><path d="M5 0h28a5 5 0 0 1 5 5v5h0H0h0V5a5 5 0 0 1 5-5z" stroke-linejoin="round" stroke-linecap="round" stroke-width="2" stroke="#bcad94" fill="transparent" transform="matrix(.94737 0 0 .8 942 1454)"/></g><path d="M960.5 1524.5v8" stroke-linejoin="round" stroke-linecap="round" stroke-width="2" stroke="#bcad94" fill="transparent" data-name="Line 26"/><path d="M959 1514.4a1.5 1.5 0 1 1 0 .1z" fill="#bcad94" fill-rule="evenodd" data-name="Ellipse 76"/><path d="M952 1515.4a1.5 1.5 0 1 1 0 .1z" fill="#bcad94" fill-rule="evenodd" data-name="Ellipse 77"/><path d="M966 1515.4a1.5 1.5 0 1 1 0 .1z" fill="#bcad94" fill-rule="evenodd" data-name="Ellipse 78"/></g></svg>