<svg xmlns="http://www.w3.org/2000/svg" width="57.45" height="57.467" viewBox="513.517 2681.483 57.45 57.467"><g data-name="Group 881"><g data-name="Group 864"><g data-name="Group 863"><path d="M528.557 2708.796h28.325v2.644h-28.325v-2.644z" fill="#bcad94" fill-rule="evenodd" data-name="Rectangle 595"/></g></g><g data-name="001-clover"><g data-name="Group 852"><path d="M570.94 2702.396c0-2.447-.808-4.48-2.335-5.878-1.395-1.277-3.294-1.952-5.491-1.952h-.004c-2.551 0-6.006 1.828-9.419 4.198 2.37-3.412 4.198-6.867 4.199-9.418.001-2.199-.674-4.099-1.952-5.496-1.399-1.526-3.431-2.334-5.878-2.334-2.611 0-5.887 1.802-7.83 3.429-1.944-1.627-5.219-3.43-7.83-3.43-4.755 0-7.829 3.075-7.83 7.83-.002 2.549 1.826 6.004 4.197 9.418-3.412-2.37-6.866-4.197-9.414-4.197h-.003c-4.756 0-7.83 3.075-7.83 7.83 0 2.61 1.802 5.886 3.43 7.83-1.628 1.943-3.43 5.218-3.43 7.83 0 4.756 3.074 7.83 7.83 7.83 2.55 0 6.005-1.827 9.417-4.198-2.37 3.413-4.197 6.867-4.197 9.417 0 4.757 3.074 7.83 7.83 7.83 2.611 0 5.886-1.802 7.83-3.429 1.943 1.627 5.218 3.43 7.83 3.43 4.755 0 7.829-3.074 7.83-7.83 0-1.238-.44-2.694-1.155-4.252 3.133 3.272 6.562 7.275 9.184 11.468a1.302 1.302 0 0 0 1.798.415c.61-.382.796-1.187.414-1.799-2.975-4.76-6.87-9.218-10.29-12.716 1.938 1.007 3.763 1.664 5.266 1.663h.003c4.756 0 7.83-3.075 7.83-7.83 0-2.61-1.802-5.886-3.43-7.83 1.628-1.943 3.43-5.218 3.43-7.83Zm-41.76-13.05c0-1.57.51-5.22 5.22-5.22 2.14 0 5.586 2.083 6.865 3.488.495.545 1.435.545 1.93 0 1.28-1.405 4.725-3.488 6.865-3.488 1.72 0 3.048.5 3.952 1.487.83.906 1.268 2.197 1.268 3.732-.001 4.558-8.696 14.506-13.05 19.017-4.356-4.512-13.053-14.463-13.05-19.016Zm-7.83 33.93c-1.57 0-5.22-.509-5.22-5.22 0-2.14 2.083-5.586 3.488-6.866a1.301 1.301 0 0 0 0-1.93c-1.405-1.279-3.488-4.725-3.488-6.864 0-4.71 3.651-5.22 5.221-5.22h.001c4.554 0 14.503 8.695 19.015 13.05-4.512 4.354-14.462 13.05-19.017 13.05Zm28.71 13.05c-2.14 0-5.586-2.084-6.865-3.488a1.301 1.301 0 0 0-1.93 0c-1.28 1.404-4.725 3.488-6.865 3.488-4.712 0-5.22-3.65-5.22-5.22 0-4.555 8.695-14.506 13.05-19.017 4.356 4.512 13.052 14.463 13.05 19.016 0 1.57-.51 5.22-5.22 5.22Zm18.27-18.27c0 4.71-3.651 5.22-5.221 5.22h-.002c-4.553-.002-14.502-8.696-19.014-13.05 4.51-4.355 14.457-13.05 19.017-13.05h.004c1.533 0 2.822.438 3.729 1.268.986.903 1.487 2.232 1.487 3.952 0 2.14-2.084 5.585-3.488 6.865a1.301 1.301 0 0 0 0 1.93c1.404 1.279 3.488 4.725 3.488 6.865Z" fill="#bcad94" fill-rule="evenodd" data-name="Path 450"/></g></g><g data-name="Group 878"><g data-name="Group 863"><path d="M544.042 2695.956v28.324h-2.644v-28.324h2.644z" fill="#bcad94" fill-rule="evenodd" data-name="Rectangle 595"/></g></g></g></svg>