<svg xmlns="http://www.w3.org/2000/svg" width="62.833" height="104.317" viewBox="447.083 1513.6 62.833 104.317"><g data-name="Group 8"><g data-name="Rectangle 35"><path d="M454 1514h49a6 6 0 0 1 6 6v88a6 6 0 0 1-6 6h-49a6 6 0 0 1-6-6v-88a6 6 0 0 1 6-6z" fill="#fff" fill-rule="evenodd"/><path d="M6 0h49a6 6 0 0 1 6 6v88a6 6 0 0 1-6 6H6a6 6 0 0 1-6-6V6a6 6 0 0 1 6-6z" stroke-linejoin="round" stroke-linecap="round" stroke-width="2" stroke="#bcad94" fill="transparent" transform="matrix(.96721 0 0 .98 449 1515)"/></g><path d="M508.5 1551.5h-60" stroke-linejoin="round" stroke-linecap="round" stroke-width="2" stroke="#bcad94" fill="transparent" data-name="Line 22"/><path d="M508.5 1556.5h-60" stroke-linejoin="round" stroke-linecap="round" stroke-width="2" stroke="#bcad94" fill="transparent" data-name="Line 31"/><path d="M498.5 1576.5v-13" stroke-linejoin="round" stroke-linecap="round" stroke-width="2" stroke="#bcad94" fill="transparent" data-name="Line 24"/><path d="M453.5 1616.5h7" stroke-linejoin="round" stroke-linecap="round" stroke-width="2" stroke="#bcad94" fill="transparent" data-name="Line 27"/><path d="M496.5 1616.5h7" stroke-linejoin="round" stroke-linecap="round" stroke-width="2" stroke="#bcad94" fill="transparent" data-name="Line 28"/><path d="M498.5 1544.5v-13" stroke-linejoin="round" stroke-linecap="round" stroke-width="2" stroke="#bcad94" fill="transparent" data-name="Line 25"/></g></svg>