<svg xmlns="http://www.w3.org/2000/svg" width="75.667" height="61.433" viewBox="1051.6 2687.017 75.667 61.433"><g data-name="Group 880"><path d="M1115.292 2709.591h-6.012l-.042-.193a20.237 20.237 0 0 0-13.128-14.645c.393-.744.6-1.57.607-2.411a5.307 5.307 0 0 0-5.308-5.308h-2.653a5.29 5.29 0 0 0-4.84 7.465 20.022 20.022 0 0 0-14.01 15.425l-1.412 7.264-.415-.082a8.54 8.54 0 0 1-5.639-3.98l-1.738-2.898a1.327 1.327 0 0 0-1.137-.637h-5.307a1.326 1.326 0 0 0-1.26 1.746l3.542 10.623a12.989 12.989 0 0 0 7.79 8.084l2.602.975a15.873 15.873 0 0 0 15.647 13.07h14.518a15.952 15.952 0 0 0 15.031-10.65c.059.015.119.027.18.035h2.985c6.595 0 11.941-5.347 11.941-11.942s-5.346-11.941-11.942-11.941Zm-48.342 15.536a15.98 15.98 0 0 0-.274 2.961l-1.415-.53a10.35 10.35 0 0 1-6.204-6.44l-2.96-8.873h2.717l1.352 2.255a11.196 11.196 0 0 0 7.394 5.21l.428.085-1.038 5.332Zm21.806-35.439h2.653a2.654 2.654 0 1 1 0 5.307h-2.653a2.654 2.654 0 1 1 0-5.307Zm-2.947 7.064a5.28 5.28 0 0 0 2.947.897h2.653a5.243 5.243 0 0 0 2.665-.744 17.546 17.546 0 0 1 12.473 12.686h-33.846a17.36 17.36 0 0 1 13.108-12.839Zm21.638 39.718a13.205 13.205 0 0 1-10.35 4.965h-14.518c-7.328 0-13.268-5.94-13.268-13.268 0-.85.082-1.699.244-2.533l2.603-13.39h25.886v3.271l-3.39 2.256c-.37.247-.592.663-.591 1.108v9.288c0 .733.594 1.326 1.327 1.326h7.961c.733 0 1.327-.593 1.327-1.326v-9.288c0-.444-.222-.858-.59-1.104l-3.39-2.26v-3.27h6.454l2.898 13.042a13.205 13.205 0 0 1-2.603 11.183Zm-8.077-18.653 2.654 1.769v7.254h-5.307v-7.251l2.653-1.772Zm13.269 6.9-1.592-7.165h4.245a3.98 3.98 0 1 1 0 7.961h-2.432c-.03 0-.055.014-.085.017-.046-.273-.074-.548-.136-.813Zm2.653 6.103h-2.511c.154-.876.233-1.764.237-2.653h2.274a6.635 6.635 0 0 0 0-13.269h-4.832l-.59-2.653h5.422a9.288 9.288 0 1 1 0 18.575Zm0 0" fill="#bcad94" fill-rule="evenodd" data-name="Path 451"/><path d="M1054.258 2706.057c0-.609.265-.87.896-1.459a4.191 4.191 0 0 0 0-6.824c-.63-.581-.896-.843-.896-1.452a1.327 1.327 0 0 0-2.654 0 4.347 4.347 0 0 0 1.757 3.412c.638.585.897.846.897 1.459 0 .613-.266.87-.897 1.46a4.342 4.342 0 0 0-1.757 3.404 1.327 1.327 0 0 0 2.654 0Zm0 0" fill="#bcad94" fill-rule="evenodd" data-name="Path 452"/><path d="M1062.649 2702.646a4.344 4.344 0 0 0-1.757 3.411 1.327 1.327 0 0 0 2.653 0c0-.609.266-.87.898-1.459a4.192 4.192 0 0 0 0-6.824c-.632-.581-.898-.843-.898-1.452a1.327 1.327 0 1 0-2.653 0 4.347 4.347 0 0 0 1.757 3.412c.638.585.896.846.896 1.459 0 .613-.258.868-.896 1.453Zm0 0" fill="#bcad94" fill-rule="evenodd" data-name="Path 453"/><g data-name="Group 879"><g data-name="Group 863"><path d="M1076.557 2745.796h28.325v2.644h-28.325v-2.644z" fill="#bcad94" fill-rule="evenodd" data-name="Rectangle 595"/></g></g></g></svg>