<svg xmlns="http://www.w3.org/2000/svg" width="83.483" height="102.5" viewBox="758.267 1514.7 83.483 102.5"><g data-name="Group 7"><g data-name="Rectangle 35"><path d="M761.657 1589h76.686a3 3 0 0 1 3 3v7a3 3 0 0 1-3 3h-76.686a3 3 0 0 1-3-3v-7a3 3 0 0 1 3-3z" fill="#fff" fill-rule="evenodd"/><path d="M3 0h76.686a3 3 0 0 1 3 3v7a3 3 0 0 1-3 3H3a3 3 0 0 1-3-3V3a3 3 0 0 1 3-3z" stroke-linejoin="round" stroke-linecap="round" stroke-width="2" stroke="#bcad94" fill="transparent" transform="matrix(.97581 0 0 .84615 759.657 1590)"/></g><g data-name="Rectangle 46"><path d="M792 1515h16a3 3 0 0 1 3 3v21h-22v-21a3 3 0 0 1 3-3z" fill="#fff" fill-rule="evenodd"/><path d="M3 0h16a3 3 0 0 1 3 3v21h0H0h0V3a3 3 0 0 1 3-3z" stroke-linejoin="round" stroke-linecap="round" stroke-width="2" stroke="#bcad94" fill="transparent" transform="matrix(.9091 0 0 .91667 790 1516)"/></g><path d="M798.5 1531.762h-9" stroke-linejoin="round" stroke-linecap="round" stroke-width="2" stroke="#bcad94" fill="transparent" data-name="Line 26"/><path d="M800.5 1526.762h-11" stroke-linejoin="round" stroke-linecap="round" stroke-width="2" stroke="#bcad94" fill="transparent" data-name="Line 59"/><path d="M802.5 1521.762h-13" stroke-linejoin="round" stroke-linecap="round" stroke-width="2" stroke="#bcad94" fill="transparent" data-name="Line 60"/><path d="M800.5 1605.5v10.262" stroke-linejoin="round" stroke-linecap="round" stroke-width="2" stroke="#bcad94" fill="transparent" data-name="Line 51"/><path d="M792.5 1605.5v10.262" stroke-linejoin="round" stroke-linecap="round" stroke-width="2" stroke="#bcad94" fill="transparent" data-name="Line 61"/><path d="M808.5 1605.5v10.262" stroke-linejoin="round" stroke-linecap="round" stroke-width="2" stroke="#bcad94" fill="transparent" data-name="Line 52"/><g data-name="Subtraction 16"><path d="M832.82 1591h-65.173l5.433-44.473c0-5.338 3.847-9.68 8.575-9.68h37.156c4.728 0 8.574 4.342 8.574 9.68L832.82 1591Z" fill="#fff" fill-rule="evenodd"/><path d="M65.172 54.154v-.001H0L5.433 9.68C5.433 4.343 9.28 0 14.008 0h37.156c4.727 0 8.574 4.343 8.574 9.68l5.434 44.473v.001Z" stroke-linejoin="round" stroke-linecap="round" stroke-width="2" stroke="#bcad94" fill="transparent" transform="matrix(.96931 0 0 .96307 768.647 1537.847)"/></g><path d="M813 1595.4a1.5 1.5 0 1 1 0 .1z" fill="#bcad94" fill-rule="evenodd" data-name="Ellipse 97"/><path d="M818 1595.4a1.5 1.5 0 1 1 0 .1z" fill="#bcad94" fill-rule="evenodd" data-name="Ellipse 98"/><path d="M823 1595.4a1.5 1.5 0 1 1 0 .1z" fill="#bcad94" fill-rule="evenodd" data-name="Ellipse 99"/></g></svg>