<svg xmlns="http://www.w3.org/2000/svg" width="136.633" height="24.767" viewBox="172.983 56.983 136.633 24.767"><path d="m183.618 73.977 5.17-16.837h5.309l-8.244 24.591h-4.645l-8.209-24.59h5.45l5.169 16.836Zm64.121-1.069 2.547 4.24a3 3 0 0 1-2.58 4.526 3 3 0 0 1-2.558-4.56l2.526-4.206V72.8l.033.054.032-.054v.108Zm-10.78-14.164a8.87 8.87 0 0 1 5.093-1.595c4.657-.02 7.757 3.572 8.036 6.991l-4.835 1.234c-.353-2.315-2.363-3.475-4.401-3.334-2.087.144-3.808 1.738-3.895 5.205v14.346h-5.03v-24.45h5.031v1.603Zm28.814 8.945 7.964-10.549h6.008l-8.208 10.34 8.558 14.111h-5.973l-6.078-10.06-2.27 2.865v7.195h-5.03v-24.45h5.03v10.548ZM208.348 57h4.82l8.733 24.591h-5.204l-1.817-5.309h-8.383l-1.816 5.31h-5.065L208.348 57Zm87.71 0h4.82l8.732 24.591h-5.204l-1.817-5.309h-8.383l-1.816 5.31h-5.065L296.058 57Zm-82.715 14.81-2.654-7.963-2.69 7.964h5.344Zm87.71 0-2.655-7.963-2.69 7.964h5.345Z" fill="#262626" fill-rule="evenodd" data-name="Path 392"/></svg>