<svg xmlns="http://www.w3.org/2000/svg" width="16.567" height="16.783" viewBox="1686.983 60.983 16.567 16.783"><path d="M1694.812 77.753h-6.142c-.644 0-1.108-.131-1.384-.394-.358-.343-.289-.811-.267-.965l.003-.021a.198.198 0 0 0 .003-.028l1.414-10.066c.172-1.03.588-1.625 2.205-1.625h.775a3.985 3.985 0 0 1 3.967-3.654c2.085 0 3.8 1.611 3.966 3.654h.496c1.638 0 2.059.596 2.232 1.625l1.433 10.066.003.028.003.021c.023.154.093.622-.27.965-.278.263-.75.394-1.401.394h-7.036Zm.807-13.099h1.588a1.853 1.853 0 0 0-1.821-1.525c-.91 0-1.67.66-1.823 1.525h2.056Z" fill="#262626" fill-rule="evenodd" data-name="Union 109"/></svg>